<svg width="766" height="166" viewBox="0 0 766 166" fill="none" xmlns="http://www.w3.org/2000/svg">
<g clip-path="url(#clip0_212_32)">
<path d="M158.5 69.4C150.4 71.7 141.9 62.4 138.4 59.6C134.9 56.8 131.3 58.5 124.5 59C128.6 65.9 131 74 131 82.6C131 108.2 110.2 129 84.5999 129C83.9999 129 83.2999 129 82.6999 129C82.0999 129 81.3999 129 80.7999 129C55.1999 129 34.3999 108.2 34.3999 82.6C34.3999 57 55.1999 36.2 80.7999 36.2C81.3999 36.2 82.0999 36.2 82.6999 36.2C83.2999 36.2 83.9999 36.2 84.5999 36.2C92.0999 36.2 99.1999 38 105.5 41.1C106.2 34 108 29.8 105.6 26.3C103.2 22.8 93.5999 14.4 95.9999 6.3C91.3999 5.4 86.8999 5 82.2999 5C77.7999 5 73.1999 5.4 68.6999 6.3C71.0999 14.4 67.0999 23.2 59.0999 26.5C51.0999 29.8 41.9999 26.6 37.8999 19.1C30.2999 24.5 23.7999 31.1 18.6999 38.5C26.0999 42.5 29.4999 51.6 26.1999 59.6C22.8999 67.6 14.1999 71.7 6.09989 69.4C4.49989 78.3 4.49989 87.5 6.19989 96.7C14.2999 94.3 23.0999 98.3 26.3999 106.3C29.6999 114.3 26.4999 123.4 18.9999 127.5C24.3999 135.1 30.9999 141.6 38.3999 146.7C42.3999 139.3 51.4999 135.9 59.4999 139.2C67.4999 142.5 71.5999 151.2 69.2999 159.3C73.4999 160 77.8999 160.4 82.1999 160.5C86.5999 160.5 90.8999 160.1 95.0999 159.3C92.7999 151.2 96.8999 142.4 104.9 139.2C112.9 135.9 122 139.3 126 146.7C133.4 141.6 140 135.1 145.4 127.5C138 123.4 134.7 114.3 138 106.3C141.3 98.3 150.1 94.3 158.2 96.7C160.1 87.5 160.1 78.3 158.5 69.4Z" fill="white"/>
<path d="M95.7002 57.9998C95.7002 58.3998 95.9002 58.8998 96.2002 59.1998L105.6 68.5998C106.3 69.2998 107.4 69.2998 108 68.5998L124.2 52.4998C125.1 51.5998 124.8 50.1998 123.7 49.6998C115.9 46.1998 116.1 40.5998 114 40.1998C113.4 40.0998 112.9 40.2998 112.5 40.6998L96.2002 56.7998C95.9002 57.0998 95.7002 57.5998 95.7002 57.9998Z" fill="#ED2024"/>
<path d="M110.3 34.3998C110.3 52.2998 132 61.2998 144.7 48.6998C157.4 36.0998 148.4 14.2998 130.5 14.2998C119.4 14.2998 110.3 23.2998 110.3 34.3998ZM118.7 34.3998C118.7 27.8998 124 22.6998 130.4 22.6998C140.8 22.6998 146 35.3998 138.6 42.6998C131.4 50.0998 118.7 44.8998 118.7 34.3998Z" fill="#ED2024"/>
<path d="M53.1001 109.8C53.1001 111.1 54.4001 111.9 55.6001 111.4L106.1 87.3996C106.6 87.1996 107 86.6996 107.1 86.0996L109.3 70.8996C109.4 70.3996 109.2 69.7996 108.8 69.3996L95.4001 55.9996C95.0001 55.5996 94.5001 55.3996 93.9001 55.4996L78.7001 57.6996C78.1001 57.7996 77.6001 58.0996 77.4001 58.6996C75.0001 63.5996 53.1001 108.8 53.1001 109.8Z" fill="white"/>
<path d="M53.1001 109.8C53.1001 110.4 53.4001 111 53.9001 111.3L102.3 62.9996L95.4001 55.9996C95.0001 55.5996 94.5001 55.3996 93.9001 55.4996L78.7001 57.6996C78.1001 57.7996 77.6001 58.0996 77.4001 58.6996C75.0001 63.5996 53.1001 108.8 53.1001 109.8Z" fill="#ED2224"/>
<path d="M183.8 72.4001C183.8 59.3001 194.5 48.6001 207.6 48.6001H248.7V60.2001H207.6C200.9 60.2001 195.4 65.7001 195.4 72.4001V88.4001C195.4 95.1001 200.9 100.6 207.6 100.6H248.7V112.2H207.6C194.5 112.2 183.8 101.5 183.8 88.4001V72.4001Z" fill="white"/>
<path d="M274.4 75.7001C266.9 78.4001 261.9 85.5001 261.9 93.4001V112.2H273.5V93.4001C273.5 93.4001 273.5 93.4001 273.5 93.3001C273.5 89.4001 276.8 86.2001 280.7 86.2001H326.7V74.6001H280.7C278.5 74.6001 276.4 75.0001 274.4 75.7001Z" fill="white"/>
<path d="M326.7 48.6001H261.9V60.2001H326.7V48.6001Z" fill="#ED2024"/>
<path d="M409.1 77.4001V99.8001C409.1 106.6 403.5 112.2 396.7 112.2H363.6C350.5 112.2 339.8 101.5 339.8 88.4001V72.4001C339.8 59.3001 350.5 48.6001 363.6 48.6001H405.2V60.2001H363.6C356.9 60.2001 351.4 65.7001 351.4 72.4001V88.4001C351.4 95.1001 356.9 100.6 363.6 100.6H395C396.4 100.6 397.5 99.5001 397.5 98.1001V89.0001H373.1V77.4001H409.1Z" fill="white"/>
<path d="M448.7 48.6001H452.2C454.8 48.6001 457.5 49.3001 459.8 50.5001C463 52.2001 465 54.6001 466.8 57.8001C467.1 58.4001 467.4 59.0001 467.7 59.6001C467.9 60.1001 468.2 60.6001 468.4 61.1001C468.6 61.5001 468.8 61.9001 468.9 62.3001L483 93.6001C483.2 94.0001 483.4 94.4001 483.6 94.9001C483.8 95.3001 484 95.8001 484.2 96.2001C484.4 96.6001 484.6 97.1001 484.8 97.5001C485.4 98.6001 485.9 99.5001 487.1 100.1C487.7 100.4 488.4 100.6 489.2 100.6H490.5C492.2 100.6 493.5 99.2001 493.5 97.6001V48.6001H505V99.7001C505 106.5 499.4 112.1 492.6 112.1H489.1C486.5 112.1 483.8 111.4 481.5 110.2C478.3 108.5 476.3 106.1 474.5 102.9C474.2 102.3 473.9 101.7 473.6 101.1C473.4 100.6 473.1 100.1 472.9 99.6001C472.7 99.2001 472.5 98.8001 472.4 98.4001L458.3 67.2001C458.1 66.8001 457.9 66.4001 457.7 65.9001C457.5 65.5001 457.3 65.0001 457.1 64.6001C456.9 64.2001 456.7 63.7001 456.5 63.3001C455.9 62.2001 455.4 61.3001 454.2 60.7001C453.6 60.4001 452.9 60.2001 452.1 60.2001H450.8C449.1 60.2001 447.8 61.6001 447.8 63.2001V112.1H436.2V61.0001C436.3 54.2001 441.8 48.6001 448.7 48.6001Z" fill="white"/>
<path d="M529.8 48.6001V112.1H518.2V48.6001H529.8Z" fill="#ED2024"/>
<path d="M555.5 48.6001H559C561.6 48.6001 564.3 49.3001 566.6 50.5001C569.8 52.2001 571.8 54.6001 573.6 57.8001C573.9 58.4001 574.2 59.0001 574.5 59.6001C574.7 60.1001 575 60.6001 575.2 61.1001C575.4 61.5001 575.6 61.9001 575.7 62.3001L589.8 93.5001C590 93.9001 590.2 94.3001 590.4 94.8001C590.6 95.2001 590.8 95.7001 591 96.1001C591.2 96.5001 591.4 97.0001 591.6 97.4001C592.2 98.5001 592.7 99.4001 593.9 100C594.5 100.3 595.2 100.5 596 100.5H597.3C599 100.5 600.3 99.1001 600.3 97.5001V48.6001H611.9V99.7001C611.9 106.5 606.3 112.1 599.5 112.1H596C593.4 112.1 590.7 111.4 588.4 110.2C585.2 108.5 583.2 106.1 581.4 102.9C581.1 102.3 580.8 101.7 580.5 101.1C580.3 100.6 580 100.1 579.8 99.6001C579.6 99.2001 579.4 98.8001 579.3 98.4001L565.2 67.2001C565 66.8001 564.8 66.4001 564.6 65.9001C564.4 65.5001 564.2 65.0001 564 64.6001C563.8 64.2001 563.6 63.7001 563.4 63.3001C562.8 62.2001 562.3 61.3001 561.1 60.7001C560.5 60.4001 559.8 60.2001 559 60.2001H557.7C556 60.2001 554.7 61.6001 554.7 63.2001V112.1H543.1V61.0001C543.1 54.2001 548.7 48.6001 555.5 48.6001Z" fill="white"/>
<path d="M660.2 88.4001V48.6001H671.8V88.4001C671.8 101.5 661.1 112.2 648 112.2H625.1V100.6H648C654.7 100.6 660.2 95.1001 660.2 88.4001Z" fill="white"/>
<path d="M753.2 112.2L735.2 66.9002C733.5 62.7002 729.9 60.2002 725.4 60.2002C720.9 60.2002 717.2 62.7002 715.6 66.9002L697.6 112.2H685L704.7 62.7002C708.1 54.1002 716.1 48.7002 725.3 48.7002C734.6 48.7002 742.5 54.1002 745.9 62.7002L765.6 112.2H753.2Z" fill="white"/>
</g>
<defs>
<clipPath id="clip0_212_32">
<rect width="765.7" height="165.4" fill="white"/>
</clipPath>
</defs>
</svg>
